<?xml version="1.0" encoding="UTF-8"?>
<!-- Created with Inkscape (http://www.inkscape.org/) -->
<svg width="215.43" height="346.52" inkscape:version="1.1 (c68e22c387, 2021-05-23)" sodipodi:docname="Zeichnung.svg" version="1.1" viewBox="0 0 57 91.684" xmlns="http://www.w3.org/2000/svg" xmlns:inkscape="http://www.inkscape.org/namespaces/inkscape" xmlns:sodipodi="http://sodipodi.sourceforge.net/DTD/sodipodi-0.dtd">
 <sodipodi:namedview width="209mm" height="400.51971px" bordercolor="#ffffff" borderopacity="1" inkscape:current-layer="g57" inkscape:cx="123.68504" inkscape:cy="520.72441" inkscape:document-units="mm" inkscape:pagecheckerboard="1" inkscape:pageopacity="0" inkscape:pageshadow="0" inkscape:window-height="771" inkscape:window-maximized="1" inkscape:window-width="1182" inkscape:window-x="-9" inkscape:window-y="-9" inkscape:zoom="0.48106061" pagecolor="#505050" showgrid="false" units="px"/>
 <g inkscape:groupmode="layer" inkscape:label="Ebene 1">
  <g transform="matrix(0 -2.6696 3.0284 0 -420.92 570.99)" stroke-width=".26458">
   <path d="m184.62 156.12c0.49838-0.22426 3.2575-0.38691 3.0207-0.17808-0.0606 0.0535-0.88415 0.16899-1.83 0.25671-1.1087 0.10281-1.5318 0.0749-1.1906-0.0786zm-1.6436-0.16133c0.11467-0.12225-0.14157-0.40627-0.56942-0.63115-0.70345-0.36973-0.73759-0.44603-0.35657-0.79707 0.37201-0.34275 0.40257-0.33927 0.26099 0.0297-0.13387 0.34885 0.0873 0.42212 1.3387 0.44347 0.82448 0.0141 1.8562 0.13931 2.2928 0.27831 0.72539 0.23095 0.67263 0.25468-0.61271 0.27546-0.77355 0.0125-1.6665 0.15793-1.9844 0.32316-0.31786 0.16524-0.4841 0.2004-0.36943 0.0781zm5.6123-0.0997c0.71819-0.1068 0.68042-0.13583-0.39687-0.30491-0.84448-0.13255-0.44059-0.17515 1.3893-0.14655 1.4189 0.0222 2.5798-0.049 2.5797-0.15811-1.1e-4 -0.10914 0.80347-0.18055 1.7857-0.1587 1.6976 0.0378 1.727 0.0489 0.59532 0.22485-1.1239 0.17473-1.1387 0.18756-0.26459 0.22889 0.68227 0.0323 0.82378 0.10847 0.53757 0.28949-0.21367 0.13513-1.8805 0.2226-3.7042 0.19438-1.8236-0.0282-2.9585-0.10442-2.5219-0.16934zm15.39 0.0571c-0.27639-0.44721 0.15895-0.60116 1.2903-0.4563 1.4049 0.17987 1.5644 0.46824 0.18915 0.34204-0.61722-0.0566-1.161 0.0133-1.2083 0.15535-0.0504 0.15109-0.16293 0.13403-0.27116-0.0411zm-7.76-0.53104c0.21291-0.34449-0.39355-0.59332-1.5-0.61546-0.82772-0.0166-0.82994-0.0201-0.17679-0.28365 0.68984-0.27833 2.7759 0.14094 2.5462 0.51177-0.1706 0.27547 4.6878 0.0463 4.9812-0.23495 0.15242-0.14613-0.34223-0.24098-1.2568-0.24098-0.82947 0-1.5081-0.11372-1.5081-0.2527 0-0.14555 1.2214-0.24938 2.8805-0.24486 2.7862 8e-3 2.8758 0.0259 2.7364 0.55866-0.10983 0.42-0.0556 0.4995 0.22837 0.33473 0.20482-0.11885 0.2831-0.11761 0.17395 3e-3 -0.21231 0.2341-0.32213 0.24456-5.73 0.54577-2.4639 0.13724-3.4946 0.11248-3.375-0.0811zm9.6081-0.26796c-0.0679-0.10914 0.60972-0.16512 1.5057-0.1244 2.7391 0.12447 3.0635 0.24151 0.78486 0.2832-1.192 0.0218-2.2227-0.0497-2.2906-0.1588zm4.7224-0.33073c0.21231-0.34352 0.92604-0.34352 0.92604 0 0 0.14552-0.24515 0.26459-0.54478 0.26459s-0.4712-0.11907-0.38126-0.26459zm-5.0877-0.42443c0.0879-0.0879 0.31612-0.0973 0.50712-0.0209 0.21106 0.0845 0.14837 0.14715-0.15985 0.15985-0.27892 0.0115-0.43519-0.0511-0.34727-0.13896zm3.5002-0.10473-0.52917-0.2274h0.52917c0.29104 0 0.76729 0.10233 1.0583 0.2274l0.52917 0.22739h-0.52917c-0.29104 0-0.76729-0.10233-1.0583-0.22739zm-14.847-0.597c-0.27411-0.32148-0.31979-0.45372-0.10151-0.29387 0.21828 0.15986 0.5696 0.34437 0.78072 0.41002 0.24591 0.0765 0.28239 0.18208 0.1015 0.29387-0.15528 0.096-0.5066-0.0885-0.78071-0.41002zm3.7961 0.42345c0.17913-0.0725 0.53632-0.0769 0.79375-0.01 0.25743 0.0671 0.11087 0.12638-0.3257 0.13178-0.43656 5e-3 -0.64718-0.0495-0.46805-0.12197zm-15.996-1.414c0-0.65485 0.0516-0.92274 0.11466-0.59532 0.0631 0.32742 0.0631 0.86321 0 1.1906s-0.11466 0.0595-0.11466-0.59531zm23.084 5e-3c-0.61955-0.64667-0.83121-0.73245-1.174-0.47578-0.34818 0.26073-0.36341 0.25167-0.091-0.0541 0.26217-0.29435 0.24089-0.46255-0.10715-0.84713-0.91532-1.0114-0.13968-0.41856 1.103 0.84305 0.71667 0.7276 1.2405 1.3229 1.164 1.3229-0.0765 0-0.47911-0.35501-0.89482-0.78892zm-12.77-0.51849-0.5946-0.49606 1.3303-0.95574c1.6319-1.1724 3.1897-1.8192 4.0066-1.6634 0.54182 0.1033 0.52687 0.12148-0.12599 0.15324-0.40741 0.0198-1.1218 0.2394-1.5875 0.48796s-0.9331 0.45692-1.0386 0.46302c-0.10554 6e-3 -0.55647 0.41026-1.0021 0.89813-0.6403 0.70104-0.74584 0.96456-0.50332 1.2568 0.42084 0.50709 0.22627 0.44933-0.48484-0.14392zm-10.29-3.9843c0-1.3824 0.0446-1.948 0.0991-1.2568 0.0545 0.69122 0.0545 1.8223 0 2.5135s-0.0991 0.12568-0.0991-1.2568zm15.978 0.8831c0.1819-0.0734 0.47956-0.0734 0.66146 0s0.0331 0.13346-0.33073 0.13346c-0.3638 0-0.51263-0.0601-0.33073-0.13346zm13.418-3.2515c-0.29609-0.12002-0.71281-0.42853-0.92604-0.68558-0.36897-0.44479-0.34698-0.44631 0.45543-0.0315 0.46371 0.23974 0.91722 0.55579 1.0078 0.70235 0.18927 0.30625 0.18252 0.30643-0.53719 0.0147zm-25.069-1.0821c0.61347-0.63458 1.1677-1.1001 1.2316-1.0345 0.0639 0.0656-0.43803 0.58483-1.1154 1.1538l-1.2316 1.0345zm-2.0752 0.34163c-0.32911-0.41965-0.31975-0.42901 0.0999-0.0999 0.44073 0.34564 0.58089 0.56292 0.36313 0.56292-0.0549 0-0.2633-0.20836-0.46302-0.46302zm-1.6199-0.90284c-0.69622-0.25428-1.0316-1.0154-0.44741-1.0154 0.15411 0 0.20648 0.11928 0.11638 0.26507-0.0901 0.1458 0.14099 0.38098 0.51355 0.52262 0.37256 0.14165 0.67738 0.32002 0.67738 0.39638 0 0.0764-0.0298 0.12944-0.0661 0.11795-0.0364-0.0115-0.39357-0.14047-0.79375-0.28663zm26.657 0.0429c-0.0899-0.14552-0.0374-0.26458 0.11668-0.26458 0.15411 0 0.2802 0.11906 0.2802 0.26458 0 0.33903-0.18735 0.33903-0.39688 0zm-20.995-1.0236c0.18203-0.29148 0.54523-0.586 0.8071-0.65448 0.64246-0.16801 0.60768-0.10624-0.33097 0.58773-0.74047 0.54746-0.77978 0.55297-0.47613 0.0668zm7.0329-3.3833c0.17914-0.0725 0.53632-0.0769 0.79375-0.01 0.25744 0.0671 0.11087 0.12639-0.32569 0.13178-0.43656 5e-3 -0.64719-0.0495-0.46806-0.12197z" fill="#a2a2a2"/>
   <path d="m183.12 146.92c-0.13976-0.66969-0.11605-1.6536 0.0399-1.6536 0.19624 0 0.85696 0.71064 1.1657 1.2537 0.12517 0.22021 0.0516 0.27601-0.22434 0.17013-0.22584-0.0867-0.41062-0.32342-0.41062-0.52613 0-0.20272-0.13197-0.36857-0.29327-0.36857-0.1807 0-0.22954 0.25389-0.12725 0.66146 0.0913 0.3638 0.10422 0.66146 0.0287 0.66146-0.0755 0-0.15597-0.0893-0.17875-0.19844zm3.3426-1.3823c0.26003-0.28733 0.72497-0.60078 1.0332-0.69656 0.30823-0.0958 0.99977-0.56833 1.5368-1.0501 1.206-1.082 3.7494-2.2771 4.3531-2.0454 0.27486 0.10548 0.38077 0.0658 0.27614-0.10355-0.25362-0.41036 2.6175-0.92301 4.3163-0.77067 0.80036 0.0718 1.9391 0.17518 2.5306 0.2298 1.0459 0.0966 5.5327 2.0109 5.2876 2.256-0.0674 0.0674-0.33599 0.0294-0.59692-0.0845-0.26094-0.11384-0.56373-0.18808-0.67287-0.16498s-0.19844-0.0919-0.19844-0.25565c0-0.19187-0.29203-0.23925-0.82166-0.13332-0.62078 0.12415-0.78866 0.0783-0.68669-0.18742 0.14128-0.36816-0.0533-0.43699-1.4682-0.51945-0.47295-0.0276-1.0049-0.22931-1.1822-0.44832-0.17728-0.21902-0.3261-0.27535-0.33073-0.12519-0.0123 0.3991-1.3936 0.44851-1.6457 0.0589-0.17164-0.26524-0.25868-0.26398-0.43342 6e-3 -0.12025 0.18599-0.80486 0.37977-1.5214 0.43063-2.2135 0.15713-3.6328 0.47213-3.2424 0.71961 0.23334 0.14792 0.0607 0.22465-0.51169 0.22733-0.85647 4e-3 -3.4414 1.2782-4.0287 1.9858-0.168 0.20242-0.45308 0.31138-0.63352 0.24213-0.18044-0.0692-0.54738 0.11643-0.81541 0.4126-0.26804 0.29618-0.6064 0.5385-0.75192 0.5385s-0.0518-0.23508 0.20819-0.52241zm21.495-0.93018c-0.66892-0.51076-1.3722-0.93806-1.5628-0.94955-0.25451-0.0153-0.26116-0.0555-0.025-0.15129 0.17687-0.0717 0.89124 0.25463 1.5875 0.72522 1.5822 1.0694 1.5121 1.0088 1.3515 1.1694-0.0742 0.0742-0.68221-0.28298-1.3511-0.79375zm-6.619-2.0767c-0.0741-0.1932 0.0324-0.35126 0.23686-0.35126 0.41661 0 0.49712 0.33219 0.13479 0.55613-0.13027 0.0805-0.29751-0.0117-0.37165-0.20487z" fill="#FFC700"/>
   <path d="m190.31 151.74c-0.18985-0.22875-0.21556-0.39687-0.0607-0.39687 0.14777 0 0.3372 0.17859 0.42097 0.39687 0.19402 0.50561 0.0594 0.50561-0.36027 0zm1.0656-0.83373c0.3598-0.24027 1.0394-0.79768 1.5101-1.2387 0.47076-0.441 0.90853-0.74922 0.97283-0.68492 0.16405 0.16405-2.4793 2.3605-2.8408 2.3605-0.16297 0-2e-3 -0.19659 0.35788-0.43686zm12.693-1.1506c0-0.33903 0.18734-0.33903 0.39687 0 0.0899 0.14552 0.0374 0.26458-0.11668 0.26458-0.15411 0-0.28019-0.11906-0.28019-0.26458zm-20.982-0.99219c-0.0777-0.40018-0.0314-0.76754 0.1031-0.81635 0.13444-0.0488 0.17392-0.20285 0.0877-0.34232-0.23006-0.37223 0.44168-1.0717 0.87101-0.90692 0.20252 0.0777 0.29548 0.0236 0.20658-0.12025-0.0889-0.14386-0.0483-0.26155 0.0902-0.26155 0.13854 0 0.31687 0.16935 0.3963 0.37633 0.13981 0.36433 1.2813 0.29148 1.1595-0.074-0.0312-0.0935 0.0624-0.20606 0.2079-0.25007 0.14552-0.044 0.59201-0.39371 0.99219-0.7771 0.65455-0.6271 1.0254-0.56659 0.52917 0.0863-0.10915 0.1436 0.15875-0.11176 0.59531-0.56747 1.1078-1.1564 3.1049-2.2336 4.1409-2.2336 0.80787 0 0.83347 0.0254 0.34976 0.34671-0.28704 0.19069-1.0157 0.50338-1.6193 0.69486-0.63444 0.20129-2.0854 1.1784-3.4396 2.3164-2.0909 1.757-4.1275 3.2567-4.4228 3.2567-0.0587 0-0.17031-0.32743-0.24806-0.72761zm22.04 0.47864c0-0.15411 0.11906-0.2802 0.26458-0.2802 0.33904 0 0.33904 0.18734 0 0.39687-0.14552 0.0899-0.26458 0.0374-0.26458-0.11667zm-11.884-0.88424c0.0606-0.0412 0.34837-0.24953 0.63941-0.46302 0.48948-0.35904 0.50193-0.35342 0.16604 0.0749-0.19972 0.25466-0.48746 0.46302-0.63941 0.46302-0.15196 0-0.22668-0.0337-0.16604-0.0749zm2.3812-0.80829c0.53933-0.43744 2.6238-1.761 2.6238-1.666 0 0.19831-2.1976 1.7554-2.4775 1.7554-0.1411 0-0.20695-0.0402-0.14631-0.0894zm5.8702-1.2518c-0.0458-0.60764 0.0789-0.66109 0.28564-0.12244 0.082 0.21362 0.0599 0.4435-0.0491 0.51084-0.10895 0.0673-0.21542-0.10744-0.23658-0.3884zm-18.178-0.0592c0.0993-0.26094 0.2473-0.40778 0.32876-0.32632 0.0815 0.0815 1.7e-4 0.29496-0.18065 0.47443-0.26131 0.25936-0.2917 0.22897-0.14811-0.14811zm16.978-0.21986c0.17948-0.18082 0.39297-0.26211 0.47444-0.18065 0.0815 0.0815-0.0654 0.2294-0.32632 0.32876-0.37709 0.14359-0.40748 0.1132-0.14812-0.14811zm6.8573-0.88474c-0.15498-0.40385 0.27305-0.84208 0.551-0.56413 0.0873 0.0873 0.0236 0.15879-0.14159 0.15879-0.16521 0-0.23184 0.17859-0.14808 0.39687 0.0838 0.21828 0.0928 0.39688 0.02 0.39688s-0.19936-0.17478-0.28134-0.38841zm1.2224 0.22855c0.0879-0.0879 0.31612-0.0973 0.50711-0.0209 0.21107 0.0845 0.14838 0.14716-0.15985 0.15986-0.27891 0.0115-0.43518-0.0511-0.34726-0.13897zm-4.5487-0.47955c-0.0115-0.27892 0.0511-0.43519 0.13896-0.34727 0.0879 0.0879 0.0973 0.31612 0.0209 0.50712-0.0845 0.21107-0.14715 0.14837-0.15985-0.15985zm-11.927-0.39529c0.3638-0.29757 0.78052-0.54186 0.92604-0.54287 0.28313-2e-3 -0.19532 0.36442-1.0583 0.81043-0.35147 0.18165-0.30705 0.0918 0.13229-0.26756zm8.2021 0.25656c0-0.15411 0.11906-0.2802 0.26458-0.2802 0.33903 0 0.33903 0.18734 0 0.39688-0.14552 0.0899-0.26458 0.0374-0.26458-0.11668zm5.4268-0.0203c0.0747-0.12094-0.0739-0.26905-0.33037-0.32913-0.25644-0.0601-0.0272-0.10523 0.50943-0.10034 1.0201 9e-3 1.1323 0.27088 0.2187 0.5098-0.29351 0.0768-0.4725 0.0406-0.39776-0.0803zm-0.92892-1.0537c-0.28838-0.18637-0.3022-0.25759-0.0505-0.26053 0.20629-2e-3 0.266-0.13779 0.14765-0.33478-0.14234-0.23692-0.0753-0.23072 0.23627 0.0219 0.26647 0.216 0.66572 0.27935 1.0306 0.16353 0.55088-0.17484 0.56321-0.1566 0.16388 0.24272-0.48961 0.48962-0.95089 0.5401-1.5279 0.1672zm-11.342-0.43972c0.17715-0.21345 0.1082-0.40566-0.21933-0.61146-0.40477-0.25433-0.34855-0.28509 0.36823-0.20152 0.46526 0.0542 0.78566 1e-3 0.71199-0.11809-0.0737-0.11919 0.0815-0.23107 0.34471-0.24863 0.26324-0.0176 1.0716-0.0702 1.7964-0.11689 0.72478-0.0467 1.3598-0.21096 1.4111-0.36495 0.20668-0.62003 0.46838-0.21917 0.50816 0.77835 0.0391 0.97926-0.0111 1.0598-0.67138 1.0776-4.3398 0.11693-4.5021 0.1095-4.2499-0.19437zm8.3455 0.0691c-0.14595-0.38032-0.26404-0.41732-0.55673-0.1744-0.29609 0.24573-0.40861 0.19137-0.55435-0.26782-0.19576-0.61677 0.19464-1.028 0.98263-1.0352 0.61911-6e-3 0.75508 0.30966 0.5172 1.1991-0.17126 0.64034-0.23289 0.68445-0.38875 0.27826zm-0.18303-0.73823c2e-3 0.19049 0.12311 0.27276 0.26864 0.18282 0.43356-0.26795 0.3002-0.62145-0.19844-0.526-0.25466 0.0488-0.55935 0.0977-0.67708 0.10888-0.11772 0.0111-0.13261 0.15202-0.0331 0.31308 0.12616 0.20413 0.24988 0.1841 0.40844-0.0662 0.18119-0.28596 0.22828-0.28853 0.23151-0.0126zm-2.9203 0.14613c-0.31446-0.8271-0.28555-0.87049 0.63057-0.94631 0.81523-0.0675 0.90611-0.33235 0.24328-0.70908-0.40933-0.23266-0.39531-0.25843 0.12094-0.22228 0.32118 0.0225 0.53057 0.0943 0.46532 0.15953-0.0653 0.0652 0.014 0.27843 0.17604 0.47372 0.2118 0.2552 0.21299 0.35507 4e-3 0.35507-0.19714 0-0.21298 0.20372-0.0493 0.63425 0.28594 0.75207 0.13784 0.95325-0.70176 0.95325-0.4308 0-0.70607-0.21609-0.88935-0.69815zm1.2046-0.62477c-0.20953-0.33903-0.39687-0.33903-0.39687 0 0 0.14552 0.12609 0.26459 0.28019 0.26459 0.15411 0 0.20662-0.11907 0.11668-0.26459zm2.5135 0.89756c0-0.21897 0.51375-0.34281 0.63154-0.15222 0.0764 0.12364-0.0344 0.2248-0.2463 0.2248-0.21188 0-0.38524-0.0327-0.38524-0.0726zm-9.1281-1.4267c-0.0899-0.14552-0.0445-0.26459 0.10106-0.26459 0.14552 0 0.33817 0.11907 0.4281 0.26459 0.0899 0.14552 0.0445 0.26458-0.10106 0.26458-0.14552 0-0.33817-0.11906-0.4281-0.26458z" fill="#FFC700"/>
   <path d="m182.9 154.41c0-0.0642 0.11906-0.19026 0.26458-0.2802 0.14552-0.0899 0.26459-0.0374 0.26459 0.11668 0 0.15411-0.11907 0.2802-0.26459 0.2802s-0.26458-0.0525-0.26458-0.11668zm0.95984-0.14279c0.12693-0.12008 0.46891-0.27561 0.75995-0.34562 0.29888-0.0719 0.0974-0.14063-0.46302-0.15797-0.96324-0.0298-0.99241-0.0596-0.99983-1.0229-4e-3 -0.5457-0.0421-1.7661-0.0842-2.712-0.0421-0.94588-0.0304-1.4519 0.026-1.1245 0.0564 0.32743 0.15625 0.59532 0.22178 0.59532 0.30704 0 2.3093-1.4702 4.4352-3.2567 1.3465-1.1315 2.8087-2.1172 3.4396-2.3186 0.60355-0.19272 1.395-0.53312 1.7588-0.75644 0.56778-0.34854 0.61758-0.35021 0.35162-0.0118-0.26898 0.34225-0.0596 0.3878 1.5875 0.34539 1.0435-0.0269 2.2396-0.0575 2.658-0.0681 0.7093-0.0179 0.75076-0.0773 0.61386-0.87913l-0.14683-0.85989 0.3791 0.85989c0.27143 0.61571 0.55419 0.8599 0.99569 0.8599 0.77819 0 0.94495-0.16857 0.78224-0.79076-0.0763-0.29168-0.28213-0.437-0.50039-0.35325-0.20394 0.0783-0.3708 0.0358-0.3708-0.0943 0-0.13012 0.22492-0.25352 0.49982-0.27423 0.35658-0.0269 0.54526 0.1895 0.65835 0.75498 0.0929 0.46463 0.27462 0.72088 0.43907 0.61925 0.19267-0.11908 0.17776-0.31103-0.0476-0.61285-0.18047-0.24171-0.0583-0.18911 0.27157 0.11688 0.57945 0.53758 0.58551 0.59028 0.17951 1.562-0.2311 0.5531-0.37002 1.0558-0.3087 1.1171 0.0613 0.0613 0.2679-0.32113 0.4591-0.84987 0.25832-0.71437 0.46848-0.92974 0.81804-0.83833 0.25872 0.0677 0.47041-5e-3 0.47041-0.16089 0-0.15616 0.0623-0.22158 0.13852-0.1454 0.22376 0.22377-0.17153 1.0188-0.4278 0.86046-0.1286-0.0795-0.15792 0.0533-0.0651 0.29506 0.15401 0.40137 0.18939 0.40256 0.40699 0.0137 0.33324-0.59547 0.7162-0.53041 0.99752 0.16947 0.1316 0.32742 0.24683 0.44167 0.25605 0.25387 9e-3 -0.18779-0.24266-0.69234-0.55974-1.1212-0.65059-0.87997-0.58238-1.02 0.71375-1.4656 0.75343-0.25902 0.9211-0.2516 0.9211 0.0407 0 0.20898-0.16481 0.29415-0.39688 0.2051-0.21828-0.0838-0.39687-0.0205-0.39687 0.1406 0 0.16109 0.14883 0.30043 0.33073 0.30966 0.1819 9e-3 0.0331 0.13649-0.33073 0.28282-0.64306 0.25864-0.64717 0.27657-0.14787 0.64468 0.28248 0.20825 0.75873 0.36958 1.0583 0.35851 0.39375-0.0146 0.28806-0.12559-0.38129-0.40061-0.58584-0.24071-0.68304-0.33185-0.26459-0.24807 0.3638 0.0728 0.80289 0.13405 0.97575 0.13603 0.17285 2e-3 0.29697 0.23349 0.2758 0.51445-0.0212 0.28096-0.15122 0.44116-0.28902 0.356-0.1378-0.0852-0.17027-0.025-0.0722 0.13378 0.28089 0.45449 1.2676 0.28244 1.0865-0.18945-0.084-0.21899-0.0682-0.31352 0.0353-0.21008 0.10345 0.10344 0.34076 0.0614 0.52737-0.0935 0.27418-0.22755 0.27887-0.15357 0.0244 0.38559-0.46865 0.99307-2.0348 1.2002-2.0348 0.26915 0-0.53012-0.34874-0.45365-0.73235 0.1606-0.28267 0.45262-0.26317 0.53361 0.13479 0.55986 0.43143 0.0285 0.43057 0.0397-0.0118 0.1544-0.40265 0.10441-0.42329 0.1901-0.1323 0.54926 0.28805 0.35553 0.28363 0.3887-0.0268 0.2016-0.25687-0.15481-0.31126-0.12632-0.17617 0.0923 0.2326 0.37636 1.2164 0.12153 1.6102-0.4171 0.1489-0.20362 0.53341-0.39001 0.85449-0.41419 0.38676-0.0291 0.67459-0.30449 0.85287-0.81589 0.22527-0.6462 0.33356-0.71841 0.66497-0.44337 0.21773 0.1807 0.33063 0.43412 0.25088 0.56315-0.0797 0.12903 0.18946 0.24045 0.59823 0.24759 0.49913 9e-3 1.0908 0.35568 1.8016 1.0564 0.58208 0.57391 0.91542 1.0443 0.74075 1.0454-0.17467 1e-3 -0.42482-0.18974-0.55589-0.42395-0.21729-0.38828-0.25329-0.3868-0.40815 0.0168-0.0934 0.24343-0.29553 0.36492-0.44915 0.26998-0.19164-0.11844-0.17991-0.29237 0.0374-0.5542 0.25267-0.30445 0.21515-0.45844-0.1856-0.76178-0.63722-0.48234-1.0566-0.50862-0.66926-0.042 0.16208 0.19529 0.21634 0.43342 0.12059 0.52917-0.33666 0.33666-0.61506 0.16842-0.61506-0.37171 0-0.41415-0.14359-0.52583-0.59532-0.46302-0.32742 0.0455-0.65484 0.15248-0.7276 0.23766-0.0728 0.0852-0.81528 0.4648-1.65 0.84361l-1.5178 0.68873-0.39293-0.56099c-0.28937-0.41313-0.31665-0.65292-0.1035-0.90976 0.42368-0.5105-0.1651-0.45231-1.0074 0.0996-0.64735 0.42416-0.70318 0.4224-1.0358-0.0325-0.32855-0.44932-0.36321-0.43455-0.52886 0.22545-0.0975 0.38847-0.10447 0.7791-0.0155 0.86807 0.089 0.089 0.0292 0.32156-0.13291 0.51685-0.37813 0.45561-1.1281 0.47694-0.85618 0.0243 0.15179-0.25265 0.10863-0.26079-0.18282-0.0345-0.52208 0.40537-2.2912 0.70022-2.4695 0.41159-0.3744-0.60579-4.262 0.61558-4.262 1.339 0 0.18394-0.11906 0.33753-0.26458 0.34131-0.519 0.0135-1.7122 0.98201-1.5444 1.2536 0.0942 0.15241 0.0448 0.19857-0.11013 0.10283-0.15456-0.0955-0.54061-0.0777-0.85789 0.0397-0.54677 0.20227-0.5523 0.23335-0.10594 0.59583 0.41339 0.33571 0.44411 0.33394 0.25143-0.0144-0.12072-0.21828 0.0648-0.12507 0.41224 0.20714 0.52977 0.50655 0.56887 0.64302 0.24226 0.84567-0.42074 0.26104-0.35406 0.30772 0.91863 0.64318 0.29104 0.0767 0.0897 0.0923-0.44736 0.0347-0.80784-0.0867-0.94861-0.0321-0.81493 0.31629 0.11851 0.30885 0.0642 0.36093-0.20363 0.19538-0.44029-0.27211-4.8191-0.17411-6.207 0.13892-0.54489 0.1229-0.88685 0.12519-0.75992 5e-3zm10.067-5.7355c-0.0958-0.0957-0.0263-0.353 0.15434-0.57167 0.28922-0.35011 0.25861-0.3541-0.25632-0.0334-0.41531 0.25862-0.49198 0.42311-0.26459 0.56762 0.39485 0.25094 0.60111 0.27203 0.36657 0.0375zm3.2088-1.7009c1.5114-1.1115 1.4075-1.2616-0.14632-0.21152-1.5636 1.0567-1.5297 1.0282-1.2207 1.0282 0.14111 0 0.75626-0.36749 1.367-0.81664zm2.5846 0.0229c0-0.24253-0.14173-0.44097-0.31495-0.44097-0.17323 0-0.24654 0.17828-0.16293 0.39618 0.107 0.27882 0.0482 0.33203-0.1984 0.17961-0.21206-0.13106-0.28664-0.11338-0.18889 0.0448 0.262 0.42392 0.86517 0.2987 0.86517-0.17961zm1.4363-0.95393c0-0.0542-0.28907-0.0746-0.64238-0.0453-0.35332 0.0292-0.59132 0.13579-0.52891 0.23678 0.1104 0.17864 1.1713 5e-3 1.1713-0.19147zm-8.4667-1.679c0.21828-0.14816 0.27782-0.26857 0.13229-0.26756-0.14552 1e-3 -0.56224 0.2453-0.92604 0.54287-0.64662 0.52891-0.12398 0.34763 0.79375-0.27531zm7.9375 0.36835c0-0.0642-0.11906-0.11668-0.26458-0.11668s-0.26458 0.12609-0.26458 0.2802 0.11906 0.20661 0.26458 0.11668c0.14552-0.0899 0.26458-0.21603 0.26458-0.2802zm6.4217 7.9256c0.0879-0.0879 0.31612-0.0973 0.50712-0.0209 0.21106 0.0845 0.14837 0.14716-0.15986 0.15986-0.27891 0.0115-0.43518-0.0511-0.34726-0.13897zm-2.1883-1.9568c0.21828-0.14107 0.51593-0.25648 0.66145-0.25648s0.086 0.11541-0.13229 0.25648c-0.21828 0.14106-0.51594 0.25648-0.66146 0.25648s-0.086-0.11542 0.1323-0.25648zm-1.2568-0.17523c-0.1819-0.0734-0.33072-0.25717-0.33072-0.40838 0-0.18038 0.12212-0.17358 0.35507 0.0197 0.19529 0.16208 0.4525 0.20642 0.57158 0.0985 0.11909-0.10787 0.13087-0.0473 0.0262 0.13459-0.10468 0.1819-0.21306 0.32133-0.24086 0.30984-0.0278-0.0115-0.19935-0.0809-0.38126-0.15434zm3.1089-0.0592c0-0.21741 1.3291-0.90593 1.4723-0.76271 0.0446 0.0446-0.26848 0.28161-0.69565 0.52677s-0.77667 0.35133-0.77667 0.23594zm-2.2009-0.46716c-0.37006-0.37006-0.16194-0.67824 0.36499-0.54044 0.33377 0.0873 0.60138-3e-3 0.68977-0.23373 0.0794-0.20698 0.36277-0.37633 0.62965-0.37633 0.26689 0 0.55375-0.11084 0.63747-0.24631 0.27863-0.45083-0.2816-0.52536-1.0301-0.13703-0.83176 0.43152-1.2852 0.51089-0.67839 0.11875 0.27751-0.17934 0.29491-0.2577 0.0578-0.26053-0.18647-2e-3 -0.40757 0.17454-0.49133 0.39282-0.19881 0.5181-0.80123 0.51357-0.80123-6e-3 0-0.2216 0.30757-0.47614 0.6835-0.56565 0.37593-0.0895 0.84141-0.2875 1.0344-0.43998 0.253-0.19989 0.41909-0.17126 0.59532 0.10263 0.19542 0.30368 0.27832 0.256 0.41342-0.23782 0.10274-0.3755 0.24101-0.50115 0.35268-0.32048 0.13004 0.21042 0.38975 0.21886 0.88933 0.0289 0.38811-0.14756 0.70565-0.17828 0.70565-0.0683 0 0.11001-0.36807 0.33896-0.81793 0.50876-0.51279 0.19356-0.74691 0.42364-0.62756 0.61675 0.10471 0.16942 0.0263 0.41195-0.17426 0.53898-0.29061 0.18407-0.29366 0.23177-0.015 0.235 0.1923 2e-3 0.52823-0.17454 0.74651-0.39283 0.45093-0.45092 0.88824-0.52064 0.88824-0.1416 0 0.36347-0.99288 0.84741-1.5462 0.75367-0.25692-0.0435-0.78802 0.13112-1.1802 0.3881-0.51042 0.33444-0.71425 0.37151-0.71715 0.13041-3e-3 -0.27096-0.0456-0.27138-0.21651-2e-3 -0.11685 0.18408-0.29363 0.25354-0.39283 0.15434zm-1.6552-0.80543c0.0362-0.24678 0.22325-0.50115 0.41563-0.56527 0.23797-0.0793 0.29401 0.0287 0.17532 0.33802-0.0959 0.25004-0.17445 0.50442-0.17445 0.56527 0 0.0609-0.10853 0.11066-0.24118 0.11066-0.13264 0-0.21153-0.20191-0.17532-0.44868zm-1.0994-0.24034c0.0879-0.0879 0.31613-0.0973 0.50712-0.0209 0.21107 0.0845 0.14837 0.14715-0.15985 0.15985-0.27892 0.0115-0.43519-0.0511-0.34727-0.13896zm-0.8654-0.45098c0.51662-0.26433 0.65561-0.5316 0.63475-1.2206l-0.0267-0.88218 0.48384 0.62921c0.27959 0.36358 0.48632 0.47763 0.48972 0.27016 4e-3 -0.21491 0.17071-0.29578 0.4165-0.20146 0.23546 0.0904 0.34166 0.046 0.24897-0.10399-0.0889-0.14385-0.0217-0.26155 0.14941-0.26155 0.18079 0 0.25311 0.2216 0.17268 0.52917-0.0963 0.36814-5e-3 0.53482 0.29987 0.54776 0.34648 0.0147 0.32744 0.0662-0.0909 0.24599-0.72826 0.31294-0.98716 0.31294-0.79375 0 0.0899-0.14553 0.0445-0.26459-0.10106-0.26459-0.14552 0-0.33937 0.12101-0.43077 0.2689-0.0914 0.1479-0.27787 0.19988-0.41436 0.11552-0.1365-0.0844-0.3196 0.0328-0.4069 0.26027-0.0873 0.22751-0.41388 0.41189-0.72574 0.40975-0.53138-4e-3 -0.52544-0.0252 0.0945-0.34235zm6.6146-0.28691c0-0.0572 0.18478-0.17489 0.41062-0.26155 0.23545-0.0904 0.34166-0.046 0.24896 0.10399-0.15538 0.2514-0.65958 0.37185-0.65958 0.15756zm-24.606-0.55747c0-0.50818 0.16526-0.50818 0.36026 0 0.0838 0.21828 0.037 0.39688-0.10398 0.39688-0.14095 0-0.25628-0.1786-0.25628-0.39688zm25.929 0.12399c0-0.14096 0.17859-0.25628 0.39687-0.25628 0.50818 0 0.50818 0.16526 0 0.36026-0.21828 0.0838-0.39687 0.037-0.39687-0.10398zm-1.1906-1.05c0.72736-0.31256 1.1451-0.31256 0.66146 0-0.21828 0.14106-0.57547 0.24993-0.79375 0.24193-0.26169-0.01-0.21663-0.092 0.13229-0.24193zm-2.4254-0.40851c0-0.21188 0.0992-0.38524 0.22049-0.38524 0.28575 0 0.28575 0.4576 0 0.6342-0.12127 0.075-0.22049-0.0371-0.22049-0.24896zm-17.418-0.64982c0.26339-0.29105 0.53842-0.52917 0.61118-0.52917 0.0728 0-0.0832 0.23812-0.3466 0.52917-0.26338 0.29104-0.53842 0.52916-0.61118 0.52916-0.0728 0 0.0832-0.23812 0.3466-0.52916zm14.159-2.4254c6e-3 -0.49115 0.43394-1.1195 0.57535-0.84405 0.21369 0.41623 0.0858 0.9751-0.24867 1.0866-0.1819 0.0606-0.32891-0.0485-0.32668-0.24253zm3.5678-0.22049c-0.0899-0.14552-0.0445-0.26458 0.10107-0.26458 0.14552 0 0.33816 0.11906 0.4281 0.26458 0.0899 0.14552 0.0445 0.26459-0.10106 0.26459-0.14552 0-0.33817-0.11907-0.42811-0.26459zm-11.333-1.7639c-0.24663-0.24662-0.22015-0.61736 0.0441-0.61736 0.12126 0 0.22048 0.1786 0.22048 0.39688 0 0.44962-0.0193 0.46573-0.26458 0.22048zm5.1153-0.35277c-0.33917-0.21919-0.32956-0.25707 0.0661-0.26054 0.25466-2e-3 0.46302 0.11502 0.46302 0.26054 0 0.32268-0.0298 0.32268-0.52916 0zm-3.1034-0.15986c0.0879-0.0879 0.31613-0.0973 0.50712-0.0209 0.21107 0.0845 0.14837 0.14716-0.15985 0.15986-0.27892 0.0115-0.43518-0.0511-0.34727-0.13897z" fill="#FFC700"/>
   <path d="m195.6 155.06c0-0.14095 0.17859-0.18775 0.39687-0.10398 0.50818 0.195 0.50818 0.36026 0 0.36026-0.21828 0-0.39687-0.11533-0.39687-0.25628zm-13.38-0.53747c0-0.29104 0.0724-0.52917 0.16098-0.52917 0.0885 0 0.16963-0.54713 0.1802-1.2158 0.0225-1.4222 0.53143-2.2209 0.54402-0.85367 0.0168 1.8282 2e-3 1.8029 1.0519 1.841 0.62199 0.0226 0.7686 0.079 0.39295 0.15121-0.32958 0.0633-0.54318 0.20588-0.47466 0.31674 0.0685 0.11087-0.0488 0.20157-0.26066 0.20157-0.21188 0-0.38919-0.12898-0.39404-0.28663-5e-3 -0.15765-0.23228-0.0187-0.50543 0.30868-0.60923 0.73029-0.69529 0.73848-0.69529 0.0661zm27.668 0.42518c0-0.0572 0.18478-0.17489 0.41062-0.26155 0.23545-0.0904 0.34166-0.046 0.24896 0.10398-0.15538 0.25141-0.65958 0.37186-0.65958 0.15757zm-23.746-0.88251c0.5457-0.0571 1.4387-0.0571 1.9844 0s0.0992 0.10379-0.99219 0.10379c-1.0914 0-1.5379-0.0467-0.99218-0.10379zm4.1672-0.0718c-0.23846-0.15411-0.2711-0.2581-0.0818-0.26053 0.17332-2e-3 0.3887 0.11501 0.47864 0.26053 0.20301 0.32849 0.11142 0.32849-0.39688 0zm0.71436-0.0898c-0.0927-0.24163-0.0462-0.43933 0.10331-0.43933 0.14954 0 0.19649-0.12202 0.10432-0.27114-0.0922-0.14913-0.01-0.23843 0.18283-0.19844 0.1939 0.0402 0.31112-0.10455 0.26245-0.32417-0.0566-0.2554 0.15563-0.16822 0.59531 0.24455 0.72003 0.67596 0.87043 1.0784 0.40306 1.0784-0.15411 0-0.21498-0.10552-0.13527-0.2345 0.0797-0.12898-0.0991-0.29832-0.39739-0.37632-0.38588-0.10091-0.60112 0.0171-0.74617 0.40925-0.17639 0.47683-0.22657 0.49188-0.37245 0.11174zm15.598-1.0346c0.15865-0.2567 0.81791-0.2567 0.97657 0 0.0674 0.10914-0.15228 0.19844-0.48829 0.19844s-0.55574-0.0893-0.48828-0.19844zm-0.99826-0.67665c-0.0172-0.10078-0.0172-0.27254 0-0.38168s-0.17702-0.20598-0.43169-0.21521c-0.35475-0.0129-0.32382-0.0727 0.1323-0.25606 0.32742-0.1316 0.59531-0.36637 0.59531-0.5217 0-0.19615-0.16837-0.19231-0.55118 0.0126-0.43373 0.23213-0.64972 0.2058-1.0137-0.12356-0.25436-0.2302-0.55204-0.32898-0.66149-0.21952-0.10946 0.10945-0.15933 0.0204-0.11082-0.19786 0.0485-0.21829-0.0643-0.36588-0.25075-0.328-0.25381 0.0516-0.23549-0.13116 0.0729-0.7276 0.22654-0.43807 0.47254-0.79649 0.54669-0.79649 0.0741 0 7e-3 0.23813-0.1484 0.52917-0.39955 0.74657-0.0392 0.65712 0.66788-0.16579 0.57351-0.66744 1.1886-0.67631 1.1802-0.017-3e-3 0.1961-0.0955 0.17056-0.2462-0.0676-0.19983-0.31586-0.33629-0.26962-0.78089 0.26458-0.48676 0.58486-0.73178 1.3088-0.44296 1.3088 0.0624 0 0.30049-0.1871 0.52916-0.41578 0.22868-0.22867 0.41578-0.29412 0.41578-0.14544 0 0.14869-0.19388 0.37884-0.43085 0.51145-0.6531 0.3655 0.0409 0.66466 0.71049 0.30629 0.30533-0.16341 0.49826-0.44535 0.42874-0.62653-0.0695-0.18119 0.0998-0.47072 0.37635-0.64341 0.33667-0.21026 0.50277-0.22068 0.50277-0.0315 0 0.15534 0.12201 0.20703 0.27114 0.11486 0.14912-0.0922 0.23842-0.0248 0.19844 0.14975-0.04 0.17453 0.0927 0.37742 0.29485 0.45087 0.25177 0.0915 0.30206 0.0185 0.15962-0.23151-0.14144-0.24832-0.12042-0.28045 0.0657-0.10047 0.15051 0.14552 0.35478 0.53306 0.45393 0.8612 0.13312 0.44054 0.0544 0.64389-0.30099 0.77735-0.26469 0.0994-0.60033 0.33833-0.74585 0.53095-0.29006 0.38394-1.4364 0.68853-1.4865 0.39499zm1.3542-0.61695c0-0.13464 0.26789-0.35248 0.59531-0.48409 0.32743-0.13161 0.43946-0.24683 0.24897-0.25606-0.19049-9e-3 -0.28047-0.12335-0.19995-0.25363 0.20112-0.32543-0.47623-0.55131-1.1359-0.37879-0.50894 0.13309-0.51685 0.18125-0.12738 0.77565 0.25828 0.39419 0.30373 0.63375 0.12024 0.63375-0.16226 0-0.29502-0.12609-0.29502-0.2802 0-0.1541-0.12484-0.20304-0.27743-0.10873-0.40589 0.25085 0.22231 0.92264 0.69365 0.74177 0.20764-0.0797 0.37753-0.25503 0.37753-0.38967zm-0.26458-0.60901c0-0.22687 0.11906-0.41249 0.26458-0.41249 0.34235 0 0.34235 0.44988 0 0.66146-0.14552 0.0899-0.26458-0.0221-0.26458-0.24897zm0-1.2219c0-0.1541-0.11906-0.20661-0.26458-0.11667-0.33904 0.20953-0.33904 0.39687 0 0.39687 0.14552 0 0.26458-0.12609 0.26458-0.2802zm0.79375 2.3969c0-0.33903 0.18734-0.33903 0.39687 0 0.0899 0.14552 0.0374 0.26458-0.11667 0.26458-0.15411 0-0.2802-0.11906-0.2802-0.26458zm0.79375-0.38126c0-0.22687 0.11906-0.41249 0.26458-0.41249 0.34235 0 0.34235 0.44988 0 0.66146-0.14552 0.0899-0.26458-0.0221-0.26458-0.24897zm0.90078-0.90078c0.11523-0.18645 8e-3 -0.30546-0.27428-0.30546-0.41931 0-0.41454-0.0388 0.0505-0.41058 0.50598-0.40448 0.50569-0.40844-0.0193-0.26656-0.35194 0.0951-0.64263-0.0317-0.85603-0.37338-0.26469-0.42385-0.25689-0.49199 0.0431-0.37686 0.20144 0.0773 0.45622-5e-3 0.56618-0.18296 0.12714-0.20572 0.0898-0.25545-0.1025-0.13659-0.19569 0.12095-0.24682 0.042-0.14487-0.2237 0.20082-0.52332-0.2695-0.53153-0.78728-0.0137-0.52707 0.52707-0.72196 0.50175-0.50913-0.0661 0.15742-0.42004 0.12737-0.42618-0.32367-0.0661-0.27346 0.21828-0.42538 0.2765-0.33759 0.12938 0.0878-0.14713-5e-3 -0.49222-0.20552-0.76687-0.30459-0.41655-0.43339-0.44272-0.77668-0.15781-0.22635 0.18785-0.48804 0.26504-0.58154 0.17155-0.0935-0.0935-0.0241-0.17 0.15431-0.17 0.17836 0 0.25697-0.10892 0.17469-0.24205-0.0823-0.13313 0.38695-0.44696 1.0427-0.69741 0.65578-0.25044 1.1941-0.588 1.1964-0.75013 2e-3 -0.16213 0.11693-0.11622 0.25489 0.10203 0.18124 0.2867 0.12505 0.44673-0.20248 0.57672-0.34721 0.13778-0.36042 0.1833-0.0565 0.19444 0.21828 8e-3 0.57547-0.10087 0.79375-0.24193 0.26458-0.17099 0.28663-0.25783 0.0661-0.26053-0.1819-2e-3 -0.33072-0.12312-0.33072-0.26864s0.17859-0.26458 0.39687-0.26458 0.39688 0.21431 0.39688 0.47625 0.14287 0.61912 0.3175 0.79375c0.24694 0.24694 0.24694 0.3175 0 0.3175-0.17463 0-0.3175 0.12609-0.3175 0.2802s0.11083 0.2117 0.2463 0.12797c0.13546-0.0837 0.32108-0.0312 0.41249 0.11668 0.0914 0.14789-0.0492 0.27269-0.31245 0.27731-0.42134 7e-3 -0.43023 0.047-0.0743 0.33073 0.50521 0.40268 0.67493 2.1807 0.23416 2.4531-0.2068 0.12781-0.25536 0.0897-0.13464-0.10557zm-1.1654-3.2463c0 0.16226-0.13891 0.29502-0.30869 0.29502-0.16977 0-0.24634 0.0623-0.17015 0.13852 0.22537 0.22537 1.0182-0.17248 0.85858-0.43083-0.0805-0.13027-0.0133-0.23686 0.14942-0.23686 0.1627 0 0.22504-0.11451 0.13854-0.25447-0.10018-0.16211-0.41001-0.15839-0.85356 0.0103-0.48988 0.18625-0.75073 0.17663-0.87996-0.0325-0.1148-0.18574-0.23628-0.0961-0.32391 0.23901-0.19727 0.75438 0.0269 0.86976 0.75859 0.39036 0.39329-0.25769 0.63114-0.30236 0.63114-0.11852zm1.8911 1.6852c-0.0258-0.69186-0.10948-1.4563-0.18599-1.6987-0.0765-0.24241-0.0126-0.51891 0.14191-0.61444 0.17428-0.10771 0.0527-0.37312-0.31996-0.69866-0.59511-0.51983-0.59531-0.52222-0.0204-0.24403 0.71557 0.34626 0.96662 0.71918 0.62592 0.92975-0.14154 0.0875-0.18491 0.34779-0.0964 0.57849 0.13197 0.3439 0.22127 0.30677 0.49576-0.20613 0.25656-0.47938 0.26262-0.71852 0.0259-1.0232-0.26855-0.34573-0.2488-0.35055 0.15123-0.0369 0.25306 0.19839 0.3837 0.48434 0.29031 0.63545-0.0934 0.15111 0.0378 0.42653 0.29149 0.61205 0.65038 0.47556 0.32068 1.5452-0.36343 1.179-0.51581-0.27606-0.81077-0.12197-0.81077 0.42355 0 0.21601 0.17268 0.28151 0.46302 0.17563 0.40697-0.14841 0.3993-0.0914-0.0633 0.47132-0.28949 0.3521-0.53806 0.67046-0.55237 0.70748-0.0143 0.037-0.0471-0.49877-0.0729-1.1906zm1.2718-1.4129c-0.16243-0.30351-0.36218-0.48498-0.44389-0.40327-0.0817 0.0817 2e-3 0.33003 0.18612 0.55182 0.47568 0.57315 0.60433 0.499 0.25777-0.14855zm-28.277 2.0291c-0.0115-0.27892 0.051-0.43519 0.13896-0.34727 0.0879 0.0879 0.0973 0.31613 0.0209 0.50712-0.0845 0.21107-0.14716 0.14837-0.15985-0.15985zm18.247-0.80932c-0.50287-0.18311-0.96377-0.48131-1.0242-0.66266-0.0804-0.24127-0.16012-0.24849-0.29705-0.0269-0.13019 0.21065-0.38211 0.22487-0.82787 0.0467l-0.64073-0.25609 0.67469-0.0168c0.37108-9e-3 0.83503-0.1656 1.031-0.3475 0.28506-0.26458 0.31898-0.26458 0.1696 0-0.1027 0.1819-0.0536 0.33073 0.10909 0.33073 0.1627 0 0.22223 0.11906 0.13229 0.26458-0.0899 0.14552 0.0895 0.26459 0.39865 0.26459 0.3092 0 0.78058 0.11688 1.0475 0.25973 0.34617 0.18527 0.52223 0.16359 0.61401-0.0756 0.0728-0.18985-0.0879-0.3572-0.37043-0.38573-1.1231-0.11341-1.2928-0.16015-1.2928-0.35606 0-0.11268 0.10309-0.26859 0.2291-0.34647 0.126-0.0779 0.18299-0.47185 0.12663-0.87551-0.10198-0.73044-0.10114-0.73086 0.17733-0.0897 0.15389 0.3543 0.2197 0.80079 0.14625 0.99219-0.15487 0.40359 0.53235 0.47747 0.77589 0.0834 0.31785-0.51429 0.55007-0.25406 0.52974 0.59361-0.0236 0.98297-0.34991 1.0982-1.7086 0.60349zm-6.7446-0.11617c-0.0852-0.13784-0.0421-0.32032 0.0957-0.40551 0.13784-0.0852 0.32032-0.0421 0.4055 0.0957 0.0852 0.13784 0.0421 0.32031-0.0957 0.4055-0.13784 0.0852-0.32032 0.0421-0.40551-0.0957zm1.1105-0.727c0.1819-0.0734 0.47956-0.0734 0.66146 0s0.0331 0.13346-0.33073 0.13346c-0.3638 0-0.51263-0.0601-0.33073-0.13346zm1.4607 0.0154c0.0879-0.0879 0.31613-0.0973 0.50712-0.0209 0.21107 0.0845 0.14837 0.14716-0.15985 0.15985-0.27892 0.0115-0.43518-0.051-0.34727-0.13896zm15.01-0.0606c0-0.12127 0.17859-0.22049 0.39687-0.22049s0.39688 0.0992 0.39688 0.22049c0 0.12126-0.1786 0.22048-0.39688 0.22048s-0.39687-0.0992-0.39687-0.22048zm-29.365-1.1686c-4e-3 -0.79011 0.12534-0.93238 0.34003-0.37288 0.0749 0.1951 0.0299 0.52252-0.0999 0.7276-0.17179 0.27138-0.23715 0.17481-0.2401-0.35472zm20.789 0.23322c0.21051-0.54859-0.14613-1.1396-0.42014-0.69624-0.12458 0.20157-0.25912 0.22289-0.36147 0.0573-0.0897-0.14509 0.25983-0.46445 0.77666-0.7097 0.51682-0.24525 1.0048-0.61551 1.0843-0.82279 0.20238-0.52738 0.58482-0.47074 0.58167 0.0861-1e-3 0.25466 0.0486 0.70114 0.11126 0.99218 0.0626 0.29105-0.0181 0.61664-0.17937 0.72356-0.46149 0.3059-0.57454 0.24211-0.61909-0.34933-0.0314-0.41658 0.0683-0.51001 0.40672-0.3812 0.36444 0.13871 0.38506 0.10694 0.11027-0.16984-0.2569-0.25876-0.44737-0.26843-0.79375-0.0403-0.25066 0.16509-0.4359 0.40054-0.41164 0.52322 0.0242 0.12268 0.0838 0.38677 0.13229 0.58686 0.0485 0.20009-0.0607 0.4184-0.24272 0.48513-0.20883 0.0766-0.27338-0.0286-0.17499-0.28498zm-1.3462-0.16707c-0.0899-0.14553-0.0374-0.26459 0.11668-0.26459 0.15411 0 0.2802 0.11906 0.2802 0.26459 0 0.33903-0.18735 0.33903-0.39688 0zm-17.44-0.69889c-0.13171-0.34323-0.0909-0.37145 0.19448-0.13458 0.19862 0.16484 0.43947 0.22137 0.53522 0.12561 0.0957-0.0958 0.17409-0.0352 0.17409 0.13459 0 0.46824-0.71399 0.369-0.90379-0.12562zm1.1684-0.37506c0-0.15411-0.11084-0.2117-0.2463-0.12798-0.13547 0.0837-0.33315 1e-3 -0.4393-0.18282-0.10615-0.18428-0.0956-0.24678 0.0235-0.1389 0.11908 0.10787 0.35142 0.0842 0.5163-0.0527 0.20478-0.16996 0.31209-0.0854 0.33863 0.26688 0.0214 0.28362-0.0133 0.51568-0.077 0.51568s-0.11584-0.12609-0.11584-0.2802zm19.844 0.0269c0-0.13211 0.26789-0.3238 0.59531-0.42598s0.68278-0.31857 0.7897-0.48085c0.11087-0.16831 0.19612-0.0204 0.19843 0.34434 2e-3 0.35167-0.0677 0.56763-0.15544 0.47991-0.0877-0.0877-0.44491-0.051-0.79375 0.0816-0.37923 0.14418-0.63425 0.14456-0.63425 9.3e-4zm0.13229-1.0696c0.0899-0.14552 0.33509-0.26458 0.54478-0.26458s0.38126-0.1318 0.38126-0.29289-0.1786-0.22436-0.39688-0.1406c-0.23419 0.0899-0.39687 3e-3 -0.39687-0.21151 0-0.23447 0.18957-0.31422 0.53329-0.22434 0.80006 0.20922 0.86549 0.52161 0.20601 0.98352-0.67032 0.46951-1.1164 0.54648-0.87159 0.1504zm3.1594-0.67606c-0.49319-0.39512-0.48994-0.40001 0.0817-0.12298 0.32742 0.15867 0.59532 0.34383 0.59532 0.41147 0 0.20247-0.13722 0.144-0.67704-0.28849zm-7.5042-0.22793c-0.0115-0.27892 0.0511-0.43519 0.13896-0.34727 0.0879 0.0879 0.0973 0.31612 0.0209 0.50712-0.0845 0.21107-0.14715 0.14837-0.15985-0.15985zm1.302 0.0535c0-0.2703 0.72394-0.2703 0.891 0 0.0707 0.11434-0.1009 0.20789-0.38126 0.20789s-0.50974-0.0935-0.50974-0.20789zm1.5875 0.0567c-0.33917-0.21919-0.32955-0.25707 0.0661-0.26053 0.25467-2e-3 0.46303 0.11501 0.46303 0.26053 0 0.32269-0.0298 0.32269-0.52917 0zm-2.1167-0.79375c0.51815-0.33486 0.86841-0.33486 0.66146 0-0.0899 0.14552-0.36485 0.26276-0.61093 0.26053-0.38557-3e-3 -0.39255-0.0395-0.0505-0.26053zm2.1167-1.3229c0-0.33903 0.18734-0.33903 0.39687 0 0.0899 0.14552 0.0374 0.26459-0.11667 0.26459-0.15411 0-0.2802-0.11907-0.2802-0.26459zm-10.947-1.1339c-0.43422-0.3175-0.42877-0.34017 0.0817-0.34017 0.30081 0 0.54694 0.0898 0.54694 0.19958 0 0.10977 0.20836 0.13256 0.46302 0.0506 0.39083-0.12573 0.40114-0.10444 0.0661 0.13654-0.50935 0.3664-0.59792 0.36283-1.1578-0.0466zm1.4941-0.61342c0.0879-0.0879 0.31612-0.0973 0.50712-0.0209 0.21106 0.0845 0.14837 0.14716-0.15986 0.15985-0.27891 0.0115-0.43518-0.051-0.34726-0.13896zm2.3096-0.3342c0-0.26354 1.7819-0.36302 1.9383-0.10821 0.0693 0.11296-0.33845 0.22662-0.90613 0.25257-0.56768 0.026-1.0322-0.039-1.0322-0.14436z" fill="#467303"/>
   <path d="m186 155.14c0.17913-0.0725 0.53632-0.0769 0.79375-0.01 0.25743 0.0671 0.11087 0.12638-0.3257 0.13177-0.43656 5e-3 -0.64718-0.0495-0.46805-0.12197zm2.8474-0.088c0.0927-0.14999-0.0135-0.19434-0.24897-0.10399-0.22584 0.0867-0.41061 0.0258-0.41061-0.13532 0-0.16109 0.43129-0.29289 0.95843-0.29289 0.82195 0 0.91154 0.0565 0.62907 0.39687-0.36156 0.43565-1.188 0.55617-0.92792 0.13533zm1.2642 0.1017c0.0879-0.0879 0.31612-0.0973 0.50712-0.0209 0.21106 0.0845 0.14837 0.14715-0.15986 0.15985-0.27891 0.0115-0.43518-0.0511-0.34726-0.13896zm1.0194 0.0549c0.26022-0.28539 2.8777-0.63531 2.8777-0.3847 0 0.12378-0.28277 0.22507-0.62839 0.22507-0.34561 0-1.0302 0.0766-1.5214 0.17029-0.49113 0.0937-0.81872 0.0889-0.72797-0.0107zm13.655-0.44543c0.0936-0.35777 0.21349-0.4777 0.27954-0.27954 0.0636 0.19088-0.0101 0.47285-0.16386 0.6266-0.19633 0.19634-0.23077 0.093-0.11568-0.34706zm-21.426 0.11057c0.1819-0.0734 0.47956-0.0734 0.66146 0s0.0331 0.13345-0.33073 0.13345c-0.3638 0-0.51263-0.0601-0.33073-0.13345zm1.1961 0.0154c0.0879-0.0879 0.31612-0.0973 0.50712-0.0209 0.21106 0.0845 0.14837 0.14716-0.15986 0.15986-0.27891 0.0115-0.43518-0.0511-0.34726-0.13897zm2.5742-0.10473c-0.33917-0.21919-0.32955-0.25707 0.0662-0.26053 0.25466-2e-3 0.46302 0.11501 0.46302 0.26053 0 0.32269-0.0298 0.32269-0.52917 0zm20.974 0.10473c0.0879-0.0879 0.31613-0.0973 0.50712-0.0209 0.21107 0.0845 0.14837 0.14716-0.15985 0.15986-0.27892 0.0115-0.43519-0.0511-0.34727-0.13897zm1.2513-0.10473c0-0.14552-0.3175-0.26458-0.70555-0.26458-0.38806 0-0.63421-0.0713-0.547-0.15856 0.0872-0.0872 0.65843-0.0741 1.2694 0.0291 0.7804 0.13185 1.0021 0.25651 0.74543 0.41909-0.48561 0.30757-0.76226 0.29848-0.76226-0.0251zm-24.937-0.43981c0.18191-0.0734 0.47956-0.0734 0.66146 0s0.0331 0.13345-0.33073 0.13345c-0.3638 0-0.51263-0.0601-0.33073-0.13345zm22.577-0.0232c-0.0115-0.1819-0.19245-0.33073-0.40215-0.33073-0.20969 0-0.454-0.1177-0.54291-0.26155-0.0927-0.14998 0.0135-0.19434 0.24897-0.10398 0.27777 0.10658 0.41604-1e-3 0.42739-0.33376 0.0132-0.38808 0.0704-0.35709 0.27214 0.14746 0.14045 0.35133 0.20184 0.76805 0.13641 0.92604-0.0738 0.17815-0.1269 0.16164-0.13985-0.0435zm-17.682-0.24853c0.25466-0.0666 0.67138-0.0666 0.92604 0s0.0463 0.121-0.46302 0.121c-0.50933 0-0.71769-0.0544-0.46302-0.121zm2.0505-0.10697c0-0.1319 0.23812-0.23981 0.52916-0.23981 0.67837 0 0.67837 0.16385 0 0.34124-0.29104 0.0761-0.52916 0.0305-0.52916-0.10143zm15.875-0.51731c0-0.18826 0.18159-0.54296 0.40355-0.78821 0.36169-0.39967 0.36162-0.48072-8e-4 -0.78142-0.35024-0.29067-0.28055-0.40179 0.52153-0.83168 1.0714-0.57421 1.2975-0.61589 1.0347-0.19073-0.11899 0.19253-0.0724 0.23351 0.12613 0.11084 0.36427-0.22507 0.3168-2.2684-0.0526-2.2684-0.13489 0-0.11265-0.15979 0.0494-0.35508 0.16208-0.19529 0.21634-0.43341 0.12059-0.52916-0.0957-0.0958-0.0352-0.1741 0.13459-0.1741 0.39518 0 0.4173 2.7422 0.028 3.4697-0.20143 0.37638-0.43652 0.47504-0.83249 0.34936-0.46412-0.14731-0.52855-0.0863-0.40552 0.38416 0.0804 0.30761 0.0383 0.55929-0.0936 0.55929s-0.23981 0.16402-0.23981 0.36448-0.1786 0.5127-0.39688 0.69386c-0.31799 0.26391-0.39687 0.26134-0.39687-0.0129zm1.1587-0.0875c0.0334-0.22741 0.13457-0.48735 0.22487-0.57766 0.0903-0.0903 0.13689 0.0219 0.10352 0.24927-0.0334 0.2274-0.13458 0.48735-0.22488 0.57765s-0.13689-0.0219-0.10351-0.24926zm-2.0186-0.96619c0.63323-0.25453 0.81894-0.58941 0.26458-0.47714-0.36002 0.0729-1.5214-0.59339-1.5214-0.87287 0-0.095 0.19185-0.24625 0.42633-0.33623 0.29948-0.11492 0.38248-0.0493 0.27895 0.22049-0.10102 0.26325 0.13945 0.47877 0.76429 0.68498 0.50142 0.16549 0.91168 0.39797 0.91168 0.51664 0 0.265-0.68276 0.54282-1.2784 0.52018-0.31239-0.0119-0.2674-0.0867 0.15393-0.25605zm-23.99-0.58707c-0.0115-0.40018 0.0982-0.7276 0.2437-0.7276 0.14552 0 0.26458-0.19844 0.26458-0.44098 0-0.24253 0.0796-0.36141 0.17679-0.26418 0.0972 0.0972 0.0464 0.4445-0.11295 0.7717s-0.34857 0.77351-0.42048 0.99179c-0.0719 0.21828-0.14015 0.0694-0.15164-0.33073zm22.435-0.13229c-0.32911-0.41965-0.31975-0.429 0.0999-0.0999 0.25466 0.19972 0.46302 0.40808 0.46302 0.46302 0 0.21777-0.21727 0.0776-0.56291-0.36312zm5.0608-0.19844c0.18116-0.21828 0.38891-0.39687 0.46167-0.39687 0.0728 0-0.0159 0.17859-0.19709 0.39687-0.18116 0.21828-0.38891 0.39688-0.46167 0.39688-0.0728 0 0.0159-0.1786 0.19709-0.39688zm-3.5198-0.50089c-0.10826-0.27549-0.13451-0.56322-0.0583-0.63941 0.24131-0.24132 0.45364 0.15414 0.35252 0.65657-0.0927 0.46046-0.10682 0.45964-0.2942-0.0172zm-2.1618-0.1493c-0.0861-0.13932 0.19861-0.43698 0.63271-0.66146 0.91498-0.47315 1.0801-0.49832 1.0801-0.16458 0 0.13396-0.35823 0.32224-0.79606 0.4184-0.43783 0.0962-0.72846 0.28422-0.64584 0.4179 0.0826 0.13368 0.0907 0.24306 0.0179 0.24306s-0.20274-0.114-0.28885-0.25332zm2.957-0.0995c-0.0745-0.19403 0.0205-0.35278 0.21105-0.35278 0.19053 0 0.2855 0.15875 0.21105 0.35278-0.17012 0.44332-0.25198 0.44332-0.4221 0zm-4.2697-0.46881c0.0694-0.11232-0.0846-0.32405-0.34236-0.47051-0.4182-0.23764-0.40579-0.26188 0.11537-0.22539 0.32118 0.0225 0.53057 0.0943 0.46532 0.15953-0.0653 0.0652-3e-3 0.25858 0.13944 0.42962 0.17741 0.21376 0.13897 0.31097-0.12295 0.31097-0.20957 0-0.32424-0.0919-0.25482-0.20422zm5.1424-0.0383c1e-4 -0.1819 0.32582-0.34965 0.72381-0.37277 0.6849-0.0398 0.69634-0.0221 0.21382 0.33073-0.6299 0.4606-0.93787 0.4744-0.93763 0.042zm-1.8523-0.31511c0-0.0642 0.11906-0.19027 0.26459-0.2802 0.14552-0.0899 0.26458-0.0374 0.26458 0.11667 0 0.15411-0.11906 0.2802-0.26458 0.2802-0.14553 0-0.26459-0.0525-0.26459-0.11667zm4.4979-0.11351c0-0.14019 0.14883-0.32566 0.33073-0.41216s0.0628-0.10757-0.26459-0.0468c-0.34654 0.0643-0.59531-0.0215-0.59531-0.20534 0-0.1737 0.23813-0.33374 0.52917-0.35567 0.29104-0.0219 0.52917 0.0788 0.52917 0.2239 0 0.14506 0.121 0.18897 0.26889 0.0976 0.1479-0.0914 0.2004-0.27702 0.11668-0.41249-0.0837-0.13546 0.0297-0.2463 0.25197-0.2463 0.2223 0 0.34333 0.14883 0.26895 0.33073-0.18404 0.4501-1.4357 1.3451-1.4357 1.0266zm-16.873-0.4521c0.2512-0.26227 0.51367-0.41989 0.58328-0.35029 0.0696 0.0696-0.13592 0.28419-0.45672 0.47684-0.55729 0.33468-0.56293 0.32904-0.12656-0.12655zm13.315 0.20337c0.34239-0.29195 1.7066-0.86177 1.7066-0.71283 0 0.14602-1.4824 0.92716-1.7596 0.92716-0.10909 0-0.0852-0.0965 0.053-0.21433zm-2.3945-0.57942c0.0899-0.14552 0.28259-0.26458 0.42811-0.26458s0.191 0.11906 0.10106 0.26458c-0.0899 0.14552-0.28258 0.26458-0.4281 0.26458-0.14553 0-0.191-0.11906-0.10107-0.26458zm-9.7967-0.27614c-0.086-0.13916 0.0888-0.25303 0.3884-0.25303 0.63885 0 0.7033 0.14714 0.15638 0.35701-0.21362 0.082-0.45877 0.0352-0.54478-0.10398zm1.3667-0.12074c0.0838-0.21828 0.25488-0.39687 0.38027-0.39687 0.12538 0 0.15944 0.17859 0.0757 0.39687-0.0838 0.21829-0.25488 0.39688-0.38026 0.39688-0.12539 0-0.15944-0.17859-0.0757-0.39688zm1.154 0.0956c0-0.12535 0.29766-0.2279 0.66146-0.2279 0.84916 0 0.84916 0.16702 0 0.32934-0.3638 0.0695-0.66146 0.0239-0.66146-0.10144zm5.2211-0.26073c0.17948-0.18082 0.39297-0.26211 0.47444-0.18065 0.0815 0.0815-0.0654 0.2294-0.32632 0.32876-0.37709 0.14359-0.40748 0.1132-0.14812-0.14811zm0.86431-0.0995c0-0.21828 0.11532-0.39687 0.25628-0.39687 0.14095 0 0.18774 0.17859 0.10398 0.39687-0.195 0.50818-0.36026 0.50818-0.36026 0zm2.3812 0.13229c0.51815-0.33485 0.86841-0.33485 0.66146 0-0.0899 0.14552-0.36486 0.26276-0.61093 0.26053-0.38557-3e-3 -0.39255-0.0395-0.0505-0.26053zm4.9389-0.44097c-0.097-0.097-0.17639-0.29942-0.17639-0.44979 0-0.16579 0.12323-0.15017 0.31309 0.0397 0.1722 0.1722 0.25157 0.3746 0.17639 0.44979-0.0752 0.0752-0.21608 0.0573-0.31309-0.0397zm-6.3941-0.35278c0.0899-0.14552 0.36485-0.26276 0.61093-0.26053 0.38557 3e-3 0.39255 0.0395 0.0505 0.26053-0.51815 0.33486-0.86841 0.33486-0.66146 0zm4.7738-0.51088c-0.16194-0.26202-0.0495-0.35724 0.76762-0.65033 0.50159-0.17991 0.50222-0.17109 0.0251 0.35608-0.55941 0.61814-0.58639 0.62815-0.79275 0.29425zm2.7668-0.0183c0-0.33904 0.18734-0.33904 0.39687 0 0.0899 0.14552 0.0374 0.26458-0.11668 0.26458-0.15411 0-0.28019-0.11906-0.28019-0.26458zm-9.9825-0.42444c0.0879-0.0879 0.31612-0.0973 0.50711-0.0209 0.21107 0.0845 0.14838 0.14716-0.15985 0.15985-0.27891 0.0115-0.43518-0.051-0.34726-0.13896zm-16.597-0.35103c-0.0837-0.13547-0.0312-0.32109 0.11668-0.41249 0.14789-0.0914 0.2689 0.0194 0.2689 0.2463 0 0.46475-0.15877 0.53318-0.38558 0.16619zm-1.1137-0.69861c0-0.18016 0.15875-0.26664 0.35278-0.19218 0.45615 0.17504 0.45615 0.51973 0 0.51973-0.19403 0-0.35278-0.1474-0.35278-0.32755zm4.2333-1.7891c0-0.19403 0.15686-0.35278 0.34858-0.35278 0.26048 0 0.27458 0.0892 0.0558 0.35278-0.36441 0.43909-0.40438 0.43909-0.40438 0zm1.2347-1.2347c-0.23847-0.15411-0.2711-0.2581-0.0818-0.26053 0.17331-2e-3 0.38869 0.11501 0.47863 0.26053 0.20302 0.32849 0.11142 0.32849-0.39687 0zm13.233-1.2568c2e-3 -0.2856 0.0785-0.35149 0.19844-0.17197 0.10691 0.16009 0.37298 0.35904 0.59126 0.44214 0.26519 0.10095 0.19935 0.158-0.19844 0.17196-0.39995 0.014-0.59398-0.13105-0.59126-0.44213zm-10.587-0.33903c0-0.14096 0.17859-0.25628 0.39687-0.25628 0.50818 0 0.50818 0.16525 0 0.36026-0.21828 0.0838-0.39687 0.037-0.39687-0.10398zm2.208-0.39999c-0.0862-0.22455-0.0976-0.4674-0.0253-0.53966 0.0722-0.0722 0.19488 0.11148 0.2725 0.40829 0.16487 0.63048-0.0183 0.72784-0.2472 0.13137zm1.0552-0.24548c0-0.20125 0.21845-0.42303 0.48544-0.49285 0.26699-0.0698 0.41871-0.019 0.33716 0.11296-0.0815 0.13195-0.0321 0.23991 0.10988 0.23991s0.3182-0.14883 0.3916-0.33073c0.0773-0.19151 0.14225-0.12882 0.15434 0.14892 0.0137 0.31508-0.13798 0.45352-0.44213 0.40348-0.25466-0.0419-0.59201 5e-3 -0.74965 0.10402-0.15765 0.0991-0.28664 0.0155-0.28664-0.18571z" fill="#FFC700"/>
   <path d="m186.07 155.04c-0.65484-0.11652-1.7264-0.23697-2.3812-0.26767-1.0926-0.0512-1.0491-0.0722 0.52917-0.25452 0.94588-0.10929 3.4275-0.24183 5.5146-0.29453l3.7948-0.0958-1.3659-1.2568c-0.75125-0.69122-1.2452-1.2568-1.0976-1.2568 0.14758 0 0.72143-0.41616 1.2752-0.92481 0.83578-0.76764 3.4318-2.2502 3.9402-2.2502 0.41418 0-0.31949 0.57852-1.2906 1.0176-1.5589 0.70494-3.4197 2.1243-3.2806 2.5023 0.0641 0.17409 0.23126 0.29317 0.37147 0.26462 0.14022-0.0285 0.83971 0.48528 1.5544 1.1418s1.1555 1.1224 0.97952 1.0351c-0.17598-0.0872-0.53316-0.0413-0.79375 0.10208-0.78406 0.43143-4.1405 0.79651-4.4425 0.48323-0.17851-0.18517-0.16293-0.21739 0.0479-0.099 0.17185 0.0965 0.38724 0.0544 0.47864-0.0935 0.10068-0.16291-0.20499-0.2689-0.77547-0.2689-0.51791 0-0.94165 0.1318-0.94165 0.29289s0.18477 0.22198 0.41061 0.13532c0.23546-0.0904 0.34167-0.046 0.24897 0.10399-0.1834 0.29674-1.0444 0.29161-2.7762-0.0165zm1.5875-0.25108c0-0.14552-0.20836-0.26276-0.46302-0.26053-0.3957 3e-3 -0.40532 0.0413-0.0662 0.26053 0.49933 0.32269 0.52917 0.32269 0.52917 0zm17.859-8e-3c-0.40557-0.16807-0.27375-0.22362 0.56446-0.23787 0.79506-0.0135 1.1361-0.14501 1.2491-0.48162 0.2306-0.68679 0.75023-1.438 1.4938-2.1593 0.3638-0.35296 0.93424-1.0087 1.2676-1.4571 0.33341-0.44844 0.69059-0.78559 0.79375-0.74921 0.10316 0.0364 0.18756-0.047 0.18756-0.18521 0-0.13824 0.1663-0.40613 0.36955-0.59531 0.27237-0.25351 0.32044-0.25699 0.18282-0.0132-0.28506 0.50491 0.0452 0.39464 0.66031-0.22048 0.49553-0.49554 0.50459-0.87376 0.022-0.92142-0.097-0.01-0.7717-0.60539-1.4993-1.324-1.5127-1.494-4.3363-3.526-6.2406-4.491-0.71501-0.36233-1.3-0.70227-1.3-0.75543 0-0.18597 1.872 0.54878 2.1781 0.85491 0.16995 0.16995 0.42761 0.309 0.57259 0.309 0.36136 0 2.3169 1.3468 2.8053 1.932 0.21883 0.26222 0.57631 0.50695 0.7944 0.54384 0.47703 0.0807 2.3809 1.7555 2.3809 2.0945 0 0.1318 0.25882 0.44922 0.57516 0.70538l0.57517 0.46574-1.2552 1.6313c-0.69039 0.89721-1.3524 1.5712-1.4712 1.4978-0.11879-0.0734-0.3783 0.0736-0.57669 0.32662-0.32641 0.41637-0.31669 0.42559 0.10231 0.097 0.80585-0.63199 0.4997 0.0808-0.35793 0.83338-0.87417 0.76706-1.1814 0.91299-0.87357 0.41491 0.1179-0.19078 0.0725-0.23358-0.12099-0.11401-0.17038 0.1053-0.24369 0.29839-0.16291 0.4291 0.0808 0.13071-0.0959 0.38925-0.39256 0.57453-0.78997 0.49334-0.66154 0.73876 0.38661 0.73876 0.50932 0 0.92593 0.0893 0.9258 0.19844-2.7e-4 0.27702-3.1913 0.32529-3.8362 0.058zm-23.366-4.9312c-0.0271-2.3528-0.12779-4.4824-0.22374-4.7324-0.11881-0.30961-0.0627-0.41736 0.17596-0.33781 0.38142 0.12714 0.39665 0.22487 0.61131 3.9242 0.0802 1.3824 0.0666 2.1564-0.0303 1.7198-0.1279-0.57616-0.21838-0.17725-0.33004 1.4552-0.12636 1.8472-0.16265 1.4847-0.20314-2.0289zm22.44 2.1977c-2.0941-2.0418-2.5095-2.275-5.0271-2.822-1.5668-0.34046-1.8313-0.46082-1.2568-0.57205 0.41603-0.0805 1.4917 0.11626 2.5119 0.45961 0.9814 0.33027 1.8773 0.54304 1.9909 0.47281 0.11363-0.0702 0.17388 0.022 0.13389 0.20503-0.04 0.18298 0.46308 0.60732 1.1179 0.94297 0.65484 0.33565 1.0168 0.6115 0.80434 0.61301-0.21323 1e-3 0.11275 0.45435 0.7276 1.0108 1.0679 0.96645 1.3422 1.3769 0.91545 1.37-0.10914-2e-3 -0.97234-0.75781-1.9182-1.6801zm-7.9375-3.3438c0-0.14553 0.1786-0.26459 0.39688-0.26459s0.39687 0.11906 0.39687 0.26459c0 0.14552-0.17859 0.26458-0.39687 0.26458s-0.39688-0.11906-0.39688-0.26458zm-12.568-2.9652c-1.1026-0.81007-1.6764-1.5327-1.2169-1.5327 0.14552 0 0.38594 0.20836 0.53426 0.46302 0.14833 0.25466 0.27331 0.36113 0.27773 0.2366 4e-3 -0.12453 0.36874 0.1597 0.80958 0.63163 0.44085 0.47192 0.76827 0.88526 0.72761 0.91852-0.0407 0.0333-0.55018-0.28941-1.1323-0.71704zm1.997-0.39247c0.30103-0.47819 3.216-2.7278 3.5345-2.7278 0.0926 0 0.64897-0.31807 1.2364-0.70682s1.3886-0.7395 1.7803-0.77944c0.59297-0.0605 0.63433-0.0283 0.24706 0.19197-0.25581 0.14553-0.58323 0.19159-0.7276 0.10237-0.14437-0.0892-0.26249-0.0618-0.26249 0.0609 0 0.12274-0.38695 0.44687-0.85989 0.72029-0.47295 0.27342-1.3064 0.84488-1.8521 1.2699-0.5457 0.42503-0.99218 0.69842-0.99218 0.60754 0-0.0909-0.32743 0.14465-0.72761 0.52338-0.40018 0.37874-0.94141 0.80738-1.2027 0.95254-0.41337 0.22961-0.43594 0.20168-0.1737-0.21489zm15.465-4.2597c-0.58208-0.22657-1.8322-0.49162-2.7781-0.58899l-1.7198-0.17703 1.6204-0.0416c0.89121-0.0229 2.0818 0.11914 2.6458 0.31563 0.564 0.1965 1.1544 0.31225 1.3121 0.25724 0.15764-0.055 0.28663 0.0819 0.28663 0.30419 0 0.46883 0.0181 0.46976-1.367-0.0694zm-6.35-0.55128c0.41706-0.17865 0.44509-0.25364 0.1323-0.35396-0.35278-0.11314-0.35278-0.12405 0-0.0982 0.58763 0.0431 0.48161 0.53296-0.1323 0.6113l-0.52916 0.0675zm-1.3836-0.19327c0.0879-0.0879 0.31613-0.0973 0.50712-0.0209 0.21107 0.0845 0.14837 0.14716-0.15985 0.15985-0.27892 0.0115-0.43518-0.051-0.34727-0.13896zm2.5692-0.23097c0.38104-0.45911 0.5342-0.50689 0.5342-0.16665 0 0.12995-0.19544 0.31127-0.4343 0.40293-0.36314 0.13935-0.37951 0.10063-0.0999-0.23628z" fill="#141c08"/>
  </g>
 </g>
</svg>
